<?xml version="1.0" encoding="UTF-8"?>
<svg width="13px" height="10px" viewBox="0 0 13 10" version="1.1" xmlns="http://www.w3.org/2000/svg" xmlns:xlink="http://www.w3.org/1999/xlink">
    <!-- Generator: sketchtool 55.2 (78181) - https://sketchapp.com -->
    <title>EB2420AF-4C39-4ABF-A25B-D11E8E6F938E</title>
    <desc>Created with sketchtool.</desc>
    <g id="2.3-Buttons" stroke="none" stroke-width="1" fill="none" fill-rule="evenodd">
        <g transform="translate(-604.000000, -571.000000)" fill="#FF9347" id="Button/Secondary/text+icon/hover">
            <g transform="translate(544.000000, 564.000000)">
                <g id="Icon/link-arrow/dark" transform="translate(58.000000, 4.000000)">
                    <path d="M11.5857864,9 L3,9 C2.44771525,9 2,8.55228475 2,8 C2,7.44771525 2.44771525,7 3,7 L11.5857864,7 L9.29289322,4.70710678 C8.90236893,4.31658249 8.90236893,3.68341751 9.29289322,3.29289322 C9.68341751,2.90236893 10.3165825,2.90236893 10.7071068,3.29289322 L14.7071068,7.29289322 C15.0976311,7.68341751 15.0976311,8.31658249 14.7071068,8.70710678 L10.7071068,12.7071068 C10.3165825,13.0976311 9.68341751,13.0976311 9.29289322,12.7071068 C8.90236893,12.3165825 8.90236893,11.6834175 9.29289322,11.2928932 L11.5857864,9 Z" id="Combined-Shape"></path>
                </g>
            </g>
        </g>
    </g>
</svg>