<?xml version="1.0" encoding="iso-8859-1"?>
<!-- Generator: Adobe Illustrator 19.0.0, SVG Export Plug-In . SVG Version: 6.00 Build 0)  -->
<svg version="1.1" id="Layer_1" xmlns="http://www.w3.org/2000/svg" xmlns:xlink="http://www.w3.org/1999/xlink" x="0px" y="0px"
	 viewBox="0 0 512 512" style="enable-background:new 0 0 512 512;" xml:space="preserve">
<path style="fill:#002833;" d="M473.68,396.8V102.4c0-7.04-5.76-12.8-12.8-12.8H51.36c-7.04,0-12.8,5.76-12.8,12.8v294.4
	C38.56,396.8,474.72,396.8,473.68,396.8z"/>
<rect x="57.76" y="106.64" style="fill:#FF5F5F;" width="396.72" height="290.16"/>
<rect y="396.8" style="fill:#E8E8E8;" width="512" height="8.56"/>
<polygon style="fill:#C9C9C9;" points="486.4,422.4 25.6,422.4 0,405.36 512,405.36 "/>
<g>
	<path style="fill:#FFFFFF;" d="M130.56,221.68l7.92,30.56c1.76,6.72,3.36,12.96,4.48,19.12h0.4c1.36-6.08,3.36-12.56,5.36-19.04
		l9.84-30.72h9.2l9.36,30.08c2.24,7.2,4,13.52,5.36,19.68h0.4c0.96-6.08,2.64-12.48,4.64-19.52l8.56-30.24h10.8l-19.36,60.16h-9.92
		l-9.2-28.72c-2.08-6.72-3.84-12.72-5.36-19.76h-0.24c-1.52,7.2-3.36,13.44-5.44,19.92l-9.68,28.64h-9.92l-18.16-60.16
		L130.56,221.68L130.56,221.68z"/>
	<path style="fill:#FFFFFF;" d="M223.6,221.68l7.92,30.56c1.76,6.72,3.36,12.96,4.48,19.12h0.4c1.36-6.08,3.36-12.56,5.36-19.04
		l9.84-30.72h9.2l9.36,30.08c2.24,7.2,4,13.52,5.36,19.68h0.4c0.96-6.08,2.64-12.48,4.64-19.52l8.56-30.24h10.8l-19.36,60.16h-9.92
		l-9.2-28.72c-2.08-6.72-3.84-12.72-5.36-19.76h-0.24c-1.52,7.2-3.36,13.44-5.44,19.92l-9.68,28.64h-9.92l-18.16-60.16L223.6,221.68
		L223.6,221.68z"/>
	<path style="fill:#FFFFFF;" d="M316.56,221.68l7.92,30.56c1.76,6.72,3.36,12.96,4.48,19.12h0.4c1.36-6.08,3.36-12.56,5.36-19.04
		l9.84-30.72h9.2l9.36,30.08c2.24,7.2,4,13.52,5.36,19.68h0.4c0.96-6.08,2.64-12.48,4.64-19.52l8.56-30.24h10.8l-19.36,60.16h-9.92
		l-9.2-28.72c-2.08-6.72-3.84-12.72-5.36-19.76h-0.24c-1.52,7.2-3.36,13.44-5.44,19.92l-9.68,28.64h-9.92l-18.16-60.16
		L316.56,221.68L316.56,221.68z"/>
</g>
<g>
</g>
<g>
</g>
<g>
</g>
<g>
</g>
<g>
</g>
<g>
</g>
<g>
</g>
<g>
</g>
<g>
</g>
<g>
</g>
<g>
</g>
<g>
</g>
<g>
</g>
<g>
</g>
<g>
</g>
</svg>
