<svg xmlns="http://www.w3.org/2000/svg" width="80" height="40" viewBox="0 0 118 59">
    <g fill="none" fill-rule="evenodd">
        <path fill="#000" d="M32.339 12.886a.358.358 0 0 0-.195-.205l.14.541a.349.349 0 0 0 .055-.336M32.102 30.457l.435-.153a.353.353 0 0 0-.435.152M33.858 29.843l.458-.162a.356.356 0 0 0-.457.162M35.817 29.045a.35.35 0 0 0-.202.182l.48-.167a.364.364 0 0 0-.278-.015M37.582 28.417a.348.348 0 0 0-.207.195l.495-.173a.354.354 0 0 0-.288-.022M39.134 27.996l.048-.018.003-.072a.329.329 0 0 0-.05.09M31.135 29.732a.355.355 0 1 0 .242.668.353.353 0 0 0 .216-.453.357.357 0 0 0-.458-.215M32.9 29.105a.355.355 0 0 0-.217.454.36.36 0 0 0 .459.214.353.353 0 0 0 .215-.454.357.357 0 0 0-.457-.214M34.664 28.476a.356.356 0 1 0 .242.668.353.353 0 0 0 .215-.454.359.359 0 0 0-.457-.214M36.428 27.848a.355.355 0 1 0 .242.668.353.353 0 0 0 .216-.453.357.357 0 0 0-.458-.215M38.193 27.22a.354.354 0 0 0-.217.454c.068.184.272.28.459.213a.352.352 0 0 0 .215-.452.357.357 0 0 0-.457-.215M31.655 28.551a.355.355 0 1 0 .242.668.353.353 0 0 0 .216-.453.357.357 0 0 0-.458-.215M33.42 27.924a.354.354 0 1 0 .242.666.352.352 0 0 0 .215-.452.357.357 0 0 0-.458-.214M35.184 27.295a.355.355 0 1 0 .242.668.353.353 0 0 0 .215-.454.359.359 0 0 0-.457-.214M36.948 26.667a.355.355 0 0 0-.216.455.36.36 0 0 0 .458.213.353.353 0 0 0 .215-.453.357.357 0 0 0-.457-.215M38.497 26.493a.36.36 0 0 0 .458.214.354.354 0 0 0 .16-.116l-.27-.572a.353.353 0 0 0-.348.474M32.266 27.355a.355.355 0 1 0 .242.668.354.354 0 0 0 .217-.454.36.36 0 0 0-.459-.214M34.03 26.727a.355.355 0 0 0-.216.454.36.36 0 0 0 .458.214.354.354 0 0 0 .217-.453.358.358 0 0 0-.459-.215M35.795 26.1a.354.354 0 0 0-.217.453.359.359 0 0 0 .675-.24.358.358 0 0 0-.458-.214M37.559 25.47a.355.355 0 1 0 .242.669.354.354 0 0 0 .216-.454.36.36 0 0 0-.458-.215M31.022 26.802a.354.354 0 0 0-.217.454.359.359 0 0 0 .675-.239.358.358 0 0 0-.458-.215M32.786 26.174a.355.355 0 1 0 .242.668.354.354 0 0 0 .216-.454.36.36 0 0 0-.458-.214M34.55 25.546a.355.355 0 0 0-.216.455.36.36 0 0 0 .458.213.354.354 0 0 0 .217-.453.358.358 0 0 0-.459-.215M36.315 24.918a.354.354 0 0 0-.217.454.359.359 0 0 0 .675-.24.359.359 0 0 0-.458-.214M37.863 24.744a.36.36 0 0 0 .458.214l.021-.01-.301-.64a.354.354 0 0 0-.178.436M31.632 25.606a.355.355 0 0 0-.216.454.36.36 0 0 0 .459.214.355.355 0 1 0-.243-.668M33.397 24.977a.356.356 0 1 0 .242.668.354.354 0 0 0 .216-.453.36.36 0 0 0-.458-.215M35.161 24.35a.355.355 0 1 0 .242.667.354.354 0 0 0 .217-.453.358.358 0 0 0-.459-.215M36.925 23.722a.354.354 0 0 0-.216.453.359.359 0 0 0 .675-.239.358.358 0 0 0-.459-.214M32.152 24.425a.352.352 0 0 0-.215.453c.066.185.271.28.457.214a.353.353 0 0 0 .217-.453.358.358 0 0 0-.459-.214M33.917 23.796a.355.355 0 1 0 .242.668.355.355 0 1 0-.242-.668M35.682 23.168a.355.355 0 0 0-.217.455.36.36 0 0 0 .459.213.354.354 0 0 0 .215-.453.357.357 0 0 0-.457-.215M37.23 22.994a.36.36 0 0 0 .302.233l-.259-.553a.345.345 0 0 0-.043.32M32.764 23.228a.355.355 0 0 0-.217.455.36.36 0 0 0 .459.213.354.354 0 0 0 .215-.453.357.357 0 0 0-.457-.215M34.528 22.6a.354.354 0 0 0-.216.454c.067.185.272.28.458.213a.352.352 0 0 0 .215-.452.357.357 0 0 0-.457-.215M36.292 21.972a.355.355 0 1 0 .242.668.353.353 0 0 0 .216-.454.357.357 0 0 0-.458-.214M29.755 23.304a.354.354 0 0 0-.216.453c.067.185.272.28.458.214a.352.352 0 0 0 .215-.453.357.357 0 0 0-.457-.214M31.52 22.675a.355.355 0 1 0 .241.668.353.353 0 0 0 .216-.453.358.358 0 0 0-.458-.215M33.284 22.047a.355.355 0 0 0-.217.455.36.36 0 0 0 .459.213.353.353 0 0 0 .215-.453.357.357 0 0 0-.457-.215M35.048 21.419a.356.356 0 1 0 .242.668.353.353 0 0 0 .215-.454.359.359 0 0 0-.457-.214M32.13 21.478a.355.355 0 1 0 .242.668.353.353 0 0 0 .216-.453.359.359 0 0 0-.458-.215M33.895 20.85a.355.355 0 1 0 .242.669.353.353 0 0 0 .215-.454.357.357 0 0 0-.457-.214M35.443 20.676a.359.359 0 0 0 .67.005l-.32-.478a.353.353 0 0 0-.35.473M30.886 20.926a.354.354 0 0 0-.217.454.359.359 0 0 0 .675-.24.358.358 0 0 0-.458-.214M32.65 20.297a.355.355 0 1 0 .242.668.354.354 0 0 0 .217-.453.36.36 0 0 0-.459-.215M34.414 19.67a.355.355 0 0 0-.216.454.36.36 0 0 0 .459.214.354.354 0 0 0 .216-.454.358.358 0 0 0-.459-.214M28.4 21.145l.038.104c-.004-.017-.006-.033-.012-.049a.272.272 0 0 0-.027-.055M29.732 20.357a.355.355 0 1 0 .242.668.354.354 0 0 0 .217-.453.36.36 0 0 0-.459-.215M31.497 19.73a.355.355 0 0 0-.217.454.36.36 0 0 0 .459.214.354.354 0 0 0 .216-.454.358.358 0 0 0-.458-.214M33.261 19.102a.354.354 0 0 0-.216.453.359.359 0 0 0 .674-.239.358.358 0 0 0-.458-.214M35.087 19.156l-.288-.43a.353.353 0 0 0 .01.201.36.36 0 0 0 .278.229M28.488 19.805a.354.354 0 0 0-.217.453.359.359 0 0 0 .675-.238.358.358 0 0 0-.458-.215M30.252 19.176a.355.355 0 1 0 .242.668.354.354 0 0 0 .217-.453.36.36 0 0 0-.459-.215M32.017 18.549a.355.355 0 0 0-.217.454.36.36 0 0 0 .459.214.355.355 0 1 0-.242-.668M33.78 17.92a.356.356 0 1 0 .243.668.354.354 0 0 0 .216-.454.36.36 0 0 0-.458-.214M29.099 18.608a.355.355 0 0 0-.217.455.36.36 0 0 0 .675-.24.358.358 0 0 0-.458-.215M30.863 17.98a.355.355 0 1 0 .242.668.354.354 0 0 0 .217-.454.36.36 0 0 0-.459-.214M32.627 17.352a.354.354 0 0 0-.215.454.358.358 0 0 0 .674-.24.358.358 0 0 0-.459-.214M29.62 17.427a.354.354 0 0 0-.217.454c.067.184.272.28.458.213a.352.352 0 0 0 .216-.452.357.357 0 0 0-.458-.215M31.384 16.799a.355.355 0 1 0 .242.668.354.354 0 0 0 .215-.454.359.359 0 0 0-.457-.214M32.932 16.625a.36.36 0 0 0 .457.215.378.378 0 0 0 .102-.058l-.395-.587a.353.353 0 0 0-.164.43M30.23 16.23a.355.355 0 0 0-.216.455.36.36 0 0 0 .458.214.353.353 0 0 0 .215-.454.357.357 0 0 0-.457-.214M31.994 15.603a.354.354 0 0 0-.216.454c.067.184.272.28.458.213a.352.352 0 0 0 .216-.453.357.357 0 0 0-.458-.214M27.633 16.436c-.006.137-.008.278-.009.421M30.75 15.05a.355.355 0 0 0-.216.454.36.36 0 0 0 .458.214.353.353 0 0 0 .215-.454.357.357 0 0 0-.457-.214M32.298 14.875c.067.185.272.28.458.215l.013-.006-.177-.68a.355.355 0 0 0-.293.47M31.36 13.853a.355.355 0 0 0-.216.455.36.36 0 0 0 .459.213.353.353 0 0 0 .215-.453.357.357 0 0 0-.457-.215M31.665 13.126c.067.184.271.28.458.215a.355.355 0 0 0 .16-.119l-.139-.541a.356.356 0 0 0-.48.445M28.108 50.023l.031-.144a.353.353 0 0 0-.031.145M37.708 47.178a.34.34 0 0 0-.012-.092c-.089.15-.18.3-.275.45a.375.375 0 0 0 .287-.358M28.22 38.303c0 .064.018.123.046.176a28.206 28.206 0 0 0-.035-.255.29.29 0 0 0-.01.079M40.436 36.838a.374.374 0 0 1-.373-.376.374.374 0 0 1 .38-.37.373.373 0 1 1-.007.746m-1.043.959a.375.375 0 0 1-.372-.377.374.374 0 0 1 .38-.369c.207.001.374.17.373.376a.376.376 0 0 1-.38.37m-.02 1.953a.374.374 0 0 1-.372-.376.375.375 0 0 1 .38-.37.373.373 0 1 1-.007.745m-.02 1.956a.377.377 0 0 1-.373-.377.375.375 0 0 1 .38-.37c.208.002.376.17.373.376a.375.375 0 0 1-.38.37m-.89-4.886a.374.374 0 0 1-.373-.376.375.375 0 0 1 .38-.37c.208.003.374.171.373.377a.374.374 0 0 1-.38.37m-.02 1.954a.374.374 0 0 1-.371-.376.376.376 0 0 1 .752.005.375.375 0 0 1-.38.37m-.019 1.954a.373.373 0 0 1-.372-.376.376.376 0 1 1 .753.008.374.374 0 0 1-.38.368m-.02 1.954a.375.375 0 0 1-.373-.377.376.376 0 0 1 .753.009.373.373 0 0 1-.38.368m-.018 1.954a.375.375 0 0 1-.374-.376.376.376 0 0 1 .753.007.375.375 0 0 1-.379.37m-.967-6.858a.375.375 0 0 1-.374-.376.375.375 0 0 1 .381-.37c.207.003.375.171.372.377a.374.374 0 0 1-.379.369m-.019 1.955a.376.376 0 0 1-.373-.377.376.376 0 1 1 .753.007.375.375 0 0 1-.38.37m-.02 1.953a.374.374 0 0 1-.372-.376.375.375 0 0 1 .38-.37c.208.003.375.171.373.377a.374.374 0 0 1-.38.369m-.019 1.955a.375.375 0 0 1-.372-.378.376.376 0 0 1 .751.007.374.374 0 0 1-.379.37m-.019 1.954a.373.373 0 1 1 .007-.746.375.375 0 0 1 .373.378.375.375 0 0 1-.38.368m-.853-8.792a.376.376 0 0 1-.372-.378.374.374 0 0 1 .38-.369.373.373 0 1 1-.008.747m-.018 1.953a.373.373 0 0 1 .007-.745.373.373 0 1 1-.007.745m-.019 1.954a.373.373 0 1 1 .007-.746c.207.003.375.17.372.376a.374.374 0 0 1-.379.37m-.02 1.954a.376.376 0 0 1-.372-.376.375.375 0 0 1 .38-.37c.208.002.375.17.373.377a.375.375 0 0 1-.38.37m-.02 1.953a.375.375 0 0 1-.372-.376.374.374 0 0 1 .38-.37c.208.003.374.17.373.377a.374.374 0 0 1-.38.369M36.4 46.57a.375.375 0 0 1-.372-.377.375.375 0 0 1 .38-.37.374.374 0 1 1-.008.747m-.019 1.954a.374.374 0 1 1 .007-.747c.209.003.375.171.373.378a.375.375 0 0 1-.38.369m-.93-10.764a.377.377 0 0 1-.372-.378.375.375 0 0 1 .38-.369.373.373 0 1 1-.007.747m-.019 1.953a.374.374 0 0 1-.372-.377.374.374 0 0 1 .38-.368.372.372 0 1 1-.008.745m-.019 1.955a.375.375 0 0 1-.372-.378.375.375 0 0 1 .38-.369.373.373 0 1 1-.008.747m-.018 1.953a.375.375 0 0 1-.373-.376.374.374 0 0 1 .38-.37.374.374 0 1 1-.007.746m-.02 1.954a.373.373 0 0 1 .008-.745c.207.002.374.169.373.375a.374.374 0 0 1-.381.37m-.019 1.954a.376.376 0 0 1-.372-.377.375.375 0 0 1 .38-.37c.208.003.374.171.373.377a.375.375 0 0 1-.38.37m-.02 1.954a.374.374 0 0 1-.372-.376.374.374 0 0 1 .38-.37.373.373 0 1 1-.007.746m-.816-12.702a.373.373 0 1 1 .008-.745c.207.002.375.17.373.376a.374.374 0 0 1-.381.37m-.019 1.954a.376.376 0 0 1-.372-.378.375.375 0 0 1 .38-.369c.208.003.374.171.373.376a.376.376 0 0 1-.38.37m-.02 1.954a.374.374 0 0 1-.372-.376.375.375 0 0 1 .752.007.373.373 0 0 1-.38.37m-.018 1.953a.373.373 0 1 1 .007-.746.373.373 0 0 1-.007.745m-.018 1.955a.374.374 0 1 1 .007-.746.375.375 0 0 1 .372.376.374.374 0 0 1-.38.37m-.018 1.954a.373.373 0 1 1 .007-.747.376.376 0 0 1 .372.379.375.375 0 0 1-.38.368m-.018 1.953a.374.374 0 0 1-.373-.376.376.376 0 1 1 .753.008.374.374 0 0 1-.38.368m-.02 1.955a.374.374 0 0 1-.372-.376.376.376 0 0 1 .753.007.375.375 0 0 1-.38.369m-.91-12.719a.373.373 0 1 1 .006-.745.373.373 0 0 1-.007.745m-.018 1.955a.373.373 0 0 1 .007-.747c.207.002.375.17.372.376a.374.374 0 0 1-.38.37m-.018 1.954a.375.375 0 0 1-.373-.376.376.376 0 0 1 .753.007.375.375 0 0 1-.38.37m-.02 1.953a.374.374 0 0 1-.372-.377.374.374 0 0 1 .38-.369c.208.002.374.17.373.376a.374.374 0 0 1-.38.37m-.02 1.954a.375.375 0 0 1-.372-.377.377.377 0 0 1 .753.007.375.375 0 0 1-.38.37m-.019 1.954a.373.373 0 0 1-.372-.377.375.375 0 0 1 .38-.369c.206.001.374.171.373.376a.375.375 0 0 1-.38.37m-.02 1.953a.374.374 0 0 1-.373-.376.376.376 0 0 1 .753.007.374.374 0 0 1-.38.37m-.018 1.954a.375.375 0 0 1-.374-.376.376.376 0 0 1 .753.006.375.375 0 0 1-.379.37m-.816-12.7a.376.376 0 0 1-.372-.378.375.375 0 0 1 .38-.37.374.374 0 1 1-.008.747m-.018 1.954a.373.373 0 1 1 .007-.745.373.373 0 1 1-.007.745m-.019 1.954a.377.377 0 0 1-.374-.377.375.375 0 0 1 .381-.37c.207.002.375.172.372.377a.376.376 0 0 1-.379.37m-.019 1.954a.376.376 0 0 1-.373-.376.376.376 0 0 1 .753.007.376.376 0 0 1-.38.369m-.018 1.953a.375.375 0 0 1-.374-.376.374.374 0 0 1 .38-.37c.208.003.374.17.373.377a.374.374 0 0 1-.38.37m-.019 1.954a.376.376 0 0 1-.372-.376.376.376 0 1 1 .753.006.375.375 0 0 1-.381.37m-.019 1.953a.373.373 0 0 1 .007-.745.373.373 0 1 1-.007.745m-.018 1.954a.375.375 0 0 1-.374-.376.375.375 0 0 1 .38-.37c.208.003.375.17.373.377a.374.374 0 0 1-.38.369m-.89-14.672a.375.375 0 0 1-.374-.378.376.376 0 0 1 .753.008.375.375 0 0 1-.38.37m-.02 1.953a.373.373 0 1 1 .008-.747.376.376 0 0 1 .373.379.375.375 0 0 1-.38.368m-.019 1.955a.373.373 0 0 1 .007-.745c.208 0 .375.169.373.375a.375.375 0 0 1-.38.37m-.019 1.954a.373.373 0 0 1 .007-.747.373.373 0 1 1-.007.747m-.018 1.954a.373.373 0 1 1 .007-.745c.207 0 .374.169.372.375a.376.376 0 0 1-.38.37m-.018 1.953a.376.376 0 0 1-.373-.376.375.375 0 0 1 .38-.37c.207.002.375.17.372.377a.375.375 0 0 1-.379.37m-.02 1.954a.376.376 0 0 1-.372-.376.375.375 0 0 1 .38-.37c.208 0 .375.17.373.375a.375.375 0 0 1-.38.37m-.02 1.954a.376.376 0 0 1-.372-.376.374.374 0 0 1 .38-.37.373.373 0 1 1-.007.746m-.815-12.701a.375.375 0 0 1-.373-.376.374.374 0 0 1 .38-.37c.207.003.375.17.372.376a.374.374 0 0 1-.379.37m-.02 1.954a.376.376 0 0 1-.372-.377.375.375 0 0 1 .38-.37c.208.003.375.172.373.377a.375.375 0 0 1-.38.37m-.02 1.954a.375.375 0 0 1-.372-.376.374.374 0 0 1 .38-.37c.208.002.374.17.373.377a.375.375 0 0 1-.38.369m-.019 1.953a.374.374 0 0 1-.372-.376.373.373 0 0 1 .38-.37c.207.003.374.172.371.377a.374.374 0 0 1-.379.37m-.019 1.954a.374.374 0 1 1 .007-.747.375.375 0 0 1 .373.376.375.375 0 0 1-.38.37m-.018 1.954a.373.373 0 1 1 .007-.745c.208.002.375.17.372.376a.374.374 0 0 1-.38.37m-.019 1.953a.374.374 0 0 1-.372-.376.376.376 0 0 1 .753.007.374.374 0 0 1-.38.369m-.02 1.954A.375.375 0 0 1 30.06 52a.376.376 0 0 1 .752.007.373.373 0 0 1-.38.37m-.891-14.673a.373.373 0 1 1 .007-.745.373.373 0 1 1-.007.745m-.019 1.954a.373.373 0 1 1 .007-.746.373.373 0 1 1-.007.746m-.02 1.954a.374.374 0 1 1 .009-.746c.208.002.374.17.372.376a.375.375 0 0 1-.38.37m-.019 1.954a.373.373 0 1 1 .008-.746c.207.003.375.17.373.376a.375.375 0 0 1-.381.37m-.019 1.953a.374.374 0 0 1-.372-.376.375.375 0 0 1 .38-.37.373.373 0 1 1-.008.746m-.018 1.955a.374.374 0 1 1 .007-.747.374.374 0 1 1-.007.747m-.019 1.953a.373.373 0 1 1 .007-.745c.208.002.375.17.373.376a.373.373 0 0 1-.38.37m-.018 1.954a.374.374 0 0 1-.373-.378.374.374 0 0 1 .38-.369c.207.003.374.171.372.376a.375.375 0 0 1-.38.37m-.018 1.954a.375.375 0 0 1-.374-.376.376.376 0 0 1 .753.007.375.375 0 0 1-.38.37m-.928-.978a.374.374 0 0 1-.372-.376.374.374 0 0 1 .38-.37.373.373 0 1 1-.008.746M26.852 53.922a.367.367 0 0 0-.14-.29c-.13.213-.269.416-.416.613a.374.374 0 0 0 .555-.323M28.45 53.565a.375.375 0 0 0-.38.37.37.37 0 0 0 .22.342c.138-.024.281-.053.43-.084a.373.373 0 0 0-.27-.628M30.07 53.812c.167-.059.337-.121.509-.192a.377.377 0 0 0-.509.192M27.419 53.316a.376.376 0 0 0 .38-.37.374.374 0 0 0-.55-.333c-.062.138-.126.274-.193.407a.374.374 0 0 0 .363.296"/>
        <path fill="#000" d="M29.397 52.588a.372.372 0 1 0-.007.745.374.374 0 0 0 .379-.369.374.374 0 0 0-.372-.376M31.367 52.607a.374.374 0 0 0-.38.37.37.37 0 0 0 .254.354c.159-.075.318-.154.48-.24a.373.373 0 0 0-.354-.485M28.469 51.611a.375.375 0 0 0-.38.37.375.375 0 0 0 .373.376.374.374 0 0 0 .379-.37.374.374 0 0 0-.372-.376M30.44 51.63a.376.376 0 0 0-.381.368.374.374 0 0 0 .373.377.374.374 0 0 0 .38-.368.375.375 0 0 0-.373-.378M32.41 51.648a.375.375 0 0 0-.38.37.374.374 0 0 0 .373.376.374.374 0 0 0 .38-.37.374.374 0 0 0-.373-.376M29.415 50.634a.373.373 0 1 0-.007.745.373.373 0 0 0 .38-.369.374.374 0 0 0-.373-.376M31.386 50.653a.373.373 0 0 0-.007.745.373.373 0 1 0 .007-.745M33.357 50.672a.376.376 0 0 0-.38.369.374.374 0 0 0 .373.376.374.374 0 0 0 .38-.368.375.375 0 0 0-.373-.377M30.458 49.675a.376.376 0 0 0-.38.37.374.374 0 0 0 .373.376.374.374 0 0 0 .38-.37.375.375 0 0 0-.373-.376M32.428 49.695a.373.373 0 1 0-.007.745.373.373 0 0 0 .007-.745M34.4 49.713a.372.372 0 1 0-.007.745.374.374 0 0 0 .378-.368.374.374 0 0 0-.372-.377M29.434 48.68a.373.373 0 1 0-.007.745.373.373 0 0 0 .38-.368.374.374 0 0 0-.373-.377M31.405 48.7a.375.375 0 0 0-.38.369.375.375 0 0 0 .373.376.373.373 0 0 0 .007-.745M33.376 48.718a.376.376 0 0 0-.38.369.374.374 0 0 0 .373.376.374.374 0 0 0 .38-.37.375.375 0 0 0-.373-.375M35.346 48.737a.375.375 0 0 0-.38.369.374.374 0 0 0 .373.376.374.374 0 0 0 .38-.37.374.374 0 0 0-.373-.375M30.477 47.721a.373.373 0 1 0-.007.746.374.374 0 0 0 .38-.37.374.374 0 0 0-.373-.376M32.447 47.74a.373.373 0 1 0-.007.746.373.373 0 0 0 .007-.745M34.418 47.759a.372.372 0 1 0-.007.745.374.374 0 0 0 .38-.368.374.374 0 0 0-.373-.377M36.388 47.778a.373.373 0 1 0-.007.745.373.373 0 0 0 .007-.745M29.453 46.727a.375.375 0 0 0-.38.369.374.374 0 0 0 .373.376.374.374 0 0 0 .38-.37.374.374 0 0 0-.373-.375M31.424 46.746a.375.375 0 0 0-.38.369.375.375 0 0 0 .373.376.375.375 0 0 0 .38-.37.373.373 0 0 0-.373-.375M33.394 46.764a.376.376 0 0 0-.38.369.374.374 0 0 0 .373.376.374.374 0 0 0 .38-.37.375.375 0 0 0-.373-.375M35.365 46.783a.373.373 0 1 0-.007.745.373.373 0 0 0 .007-.745M37.336 46.8a.372.372 0 1 0 .085.735c.094-.15.186-.3.275-.45a.376.376 0 0 0-.36-.284M30.495 45.768a.373.373 0 1 0-.007.745.374.374 0 0 0 .38-.37.374.374 0 0 0-.373-.375M32.466 45.787a.373.373 0 0 0-.007.745.373.373 0 0 0 .007-.745M34.437 45.805a.372.372 0 1 0-.007.745.374.374 0 0 0 .379-.368.374.374 0 0 0-.372-.377M36.407 45.824a.373.373 0 1 0-.007.745.373.373 0 1 0 .007-.745M37.998 46.212c0 .083.027.159.072.22.109-.196.213-.392.313-.589h-.003a.375.375 0 0 0-.382.369M29.472 44.773a.375.375 0 0 0-.38.369.374.374 0 0 0 .373.376.374.374 0 0 0 .38-.37.374.374 0 0 0-.373-.375M31.443 44.792a.373.373 0 1 0-.007.745.375.375 0 0 0 .38-.369.373.373 0 0 0-.373-.376M33.413 44.81a.373.373 0 1 0-.007.745.374.374 0 0 0 .38-.369.374.374 0 0 0-.373-.376M35.384 44.829a.373.373 0 1 0-.007.745.373.373 0 0 0 .007-.745M37.354 44.847a.372.372 0 1 0-.007.745.374.374 0 0 0 .38-.368.374.374 0 0 0-.373-.377M30.514 43.814a.373.373 0 1 0-.007.745.374.374 0 0 0 .38-.37.374.374 0 0 0-.373-.375M32.485 43.833a.373.373 0 0 0-.007.745.373.373 0 1 0 .007-.745M34.455 43.85a.372.372 0 1 0-.007.745.373.373 0 0 0 .38-.368.374.374 0 0 0-.373-.376M36.427 43.87a.375.375 0 0 0-.381.37.374.374 0 0 0 .374.375.374.374 0 0 0 .379-.369.374.374 0 0 0-.372-.376M38.397 43.888a.376.376 0 0 0-.38.37.374.374 0 0 0 .373.376.374.374 0 0 0 .38-.369.375.375 0 0 0-.373-.377M29.49 42.819a.373.373 0 1 0-.006.745.373.373 0 0 0 .007-.745M31.461 42.838a.373.373 0 1 0-.007.745.373.373 0 1 0 .007-.745M33.432 42.856a.373.373 0 1 0-.007.745.374.374 0 0 0 .38-.369.374.374 0 0 0-.373-.376M35.403 42.875a.373.373 0 0 0-.007.745.373.373 0 1 0 .007-.745M37.373 42.893a.372.372 0 1 0-.007.745.373.373 0 0 0 .38-.369.374.374 0 0 0-.373-.376M38.964 43.282a.375.375 0 0 0 .373.376l.015-.002c.09-.216.168-.432.243-.644a.374.374 0 0 0-.63.27M30.533 41.86a.373.373 0 1 0-.007.745.373.373 0 1 0 .007-.745M32.504 41.879a.375.375 0 0 0-.38.37.375.375 0 0 0 .373.375.375.375 0 0 0 .38-.369.373.373 0 0 0-.373-.376M34.475 41.897a.375.375 0 0 0-.38.37.374.374 0 0 0 .373.375.374.374 0 0 0 .379-.369.375.375 0 0 0-.372-.376M36.445 41.916a.375.375 0 0 0-.38.37.375.375 0 0 0 .373.376.374.374 0 0 0 .38-.37.374.374 0 0 0-.373-.376M38.416 41.934a.376.376 0 0 0-.38.37.374.374 0 0 0 .373.376.374.374 0 0 0 .38-.368.375.375 0 0 0-.373-.378M29.51 40.865a.373.373 0 1 0-.007.745.373.373 0 0 0 .007-.745M31.48 40.884a.374.374 0 0 0-.38.368.374.374 0 0 0 .373.377.373.373 0 1 0 .007-.745M33.45 40.902a.373.373 0 1 0-.007.745.373.373 0 0 0 .007-.745M35.421 40.921a.373.373 0 0 0-.007.745.373.373 0 1 0 .007-.745M37.392 40.94a.372.372 0 1 0-.007.745.373.373 0 0 0 .38-.37.374.374 0 0 0-.373-.376M39.363 40.958a.375.375 0 0 0-.38.37.375.375 0 0 0 .373.376.374.374 0 0 0 .38-.37.374.374 0 0 0-.373-.376M30.552 39.906a.375.375 0 0 0-.38.37.374.374 0 0 0 .373.375.374.374 0 0 0 .38-.369.374.374 0 0 0-.373-.376M32.523 39.925a.375.375 0 0 0-.38.368.375.375 0 0 0 .373.378.375.375 0 0 0 .38-.37.373.373 0 0 0-.373-.376M34.493 39.943a.375.375 0 0 0-.38.37.374.374 0 0 0 .373.376.374.374 0 0 0 .38-.37.375.375 0 0 0-.373-.376M36.464 39.962a.373.373 0 1 0-.007.746.374.374 0 0 0 .38-.37.374.374 0 0 0-.373-.376M38.435 39.98a.372.372 0 1 0-.007.745.374.374 0 0 0 .379-.367.374.374 0 0 0-.372-.378M40.026 40.369a.375.375 0 0 0 .24.35c.059-.245.111-.484.159-.717l-.02-.002a.373.373 0 0 0-.38.369M29.528 38.911a.373.373 0 1 0-.007.745.373.373 0 0 0 .007-.745M31.499 38.929a.372.372 0 1 0-.007.745.373.373 0 1 0 .007-.745M33.47 38.948a.373.373 0 1 0-.007.745.373.373 0 1 0 .007-.745M35.44 38.967a.375.375 0 0 0-.38.368.375.375 0 0 0 .374.378.375.375 0 0 0 .379-.37.373.373 0 0 0-.372-.376M37.411 38.985a.375.375 0 0 0-.38.37.374.374 0 0 0 .373.376.374.374 0 0 0 .38-.37.375.375 0 0 0-.373-.376M39.382 39.005a.375.375 0 0 0-.38.369.375.375 0 0 0 .373.376.374.374 0 0 0 .38-.37.374.374 0 0 0-.373-.376M30.571 37.952a.375.375 0 0 0-.38.37.374.374 0 0 0 .373.375.374.374 0 0 0 .38-.369.374.374 0 0 0-.373-.376M32.542 37.971a.375.375 0 0 0-.38.368.375.375 0 0 0 .373.378.375.375 0 0 0 .379-.37.373.373 0 0 0-.372-.376M34.512 37.99a.373.373 0 1 0-.007.745.373.373 0 0 0 .007-.745M36.483 38.008a.373.373 0 1 0-.007.746.373.373 0 1 0 .007-.745M38.453 38.026a.372.372 0 1 0-.007.745.374.374 0 0 0 .38-.368.374.374 0 0 0-.373-.377M40.424 38.046a.373.373 0 1 0-.007.745c.088.001.17-.03.234-.08.025-.177.049-.35.07-.515a.379.379 0 0 0-.297-.15M29.547 36.957a.373.373 0 1 0-.007.745.373.373 0 1 0 .007-.745M31.518 36.975a.372.372 0 1 0-.007.745.373.373 0 1 0 .007-.745M33.489 36.994a.375.375 0 0 0-.38.37.374.374 0 0 0 .373.376.374.374 0 0 0 .38-.37.374.374 0 0 0-.373-.376M35.46 37.013a.375.375 0 0 0-.381.369.375.375 0 0 0 .373.377.375.375 0 0 0 .38-.37.373.373 0 0 0-.373-.376M37.43 37.032a.375.375 0 0 0-.38.369.374.374 0 0 0 .373.376.374.374 0 0 0 .38-.37.375.375 0 0 0-.373-.375M39.4 37.05a.373.373 0 1 0-.006.746.373.373 0 1 0 .007-.745M28.612 36.725a.373.373 0 0 0 .371-.449l-.74.045c-.001.01-.004.019-.004.028a.373.373 0 0 0 .373.376M30.582 36.744a.375.375 0 0 0 .38-.37.38.38 0 0 0-.067-.215l-.64.04a.375.375 0 0 0-.045.169.374.374 0 0 0 .372.376M32.18 36.386a.375.375 0 0 0 .373.377.373.373 0 1 0 .156-.714l-.343.02a.37.37 0 0 0-.185.317M34.53 36.035a.373.373 0 1 0-.006.746.373.373 0 0 0 .007-.745M36.501 36.055a.374.374 0 0 0-.379.368.374.374 0 0 0 .372.377.373.373 0 1 0 .007-.745M38.472 36.073a.373.373 0 1 0-.007.745.374.374 0 0 0 .38-.37.374.374 0 0 0-.373-.375M40.443 36.092a.373.373 0 0 0-.007.745.373.373 0 1 0 .007-.745M37.673 35.746l-.418.024a.375.375 0 0 0 .418-.024M39.412 35.843a.377.377 0 0 0 .349-.225l-.668.041a.375.375 0 0 0 .319.184M35.1 58.262c.083 0 .159-.027.22-.073-.113.017-.227.035-.343.05.038.013.08.023.122.023M11.074 55.935a.374.374 0 0 0 .472.36 3.62 3.62 0 0 1-.472-.363v.003M42.005 54.537a.373.373 0 0 0 0 .745.373.373 0 1 0 0-.745M41.011 55.562a.375.375 0 0 0-.375.372c0 .207.168.373.375.373a.373.373 0 1 0 0-.745M41.011 53.608a.375.375 0 0 0-.375.373c0 .206.168.372.375.372a.373.373 0 1 0 0-.745M40.035 56.491a.374.374 0 0 0-.376.373c0 .125.06.233.156.301.203-.07.399-.14.584-.213a.375.375 0 0 0-.364-.46M40.035 54.537a.373.373 0 0 0 0 .745.374.374 0 0 0 .376-.372.375.375 0 0 0-.376-.373M40.035 53.33a.374.374 0 0 0 .363-.284c-.219-.086-.453-.171-.7-.252a.36.36 0 0 0-.04.163c0 .204.168.373.377.373M39.04 55.562a.373.373 0 0 0 0 .745.373.373 0 1 0 0-.745M39.04 53.608a.373.373 0 0 0 0 .745.373.373 0 1 0 0-.745M38.064 56.491a.373.373 0 0 0 0 .745.374.374 0 0 0 .376-.372.375.375 0 0 0-.376-.373M38.064 54.537a.373.373 0 0 0 0 .745.374.374 0 0 0 .376-.372.375.375 0 0 0-.376-.373M38.064 52.584a.374.374 0 0 0-.376.372c0 .206.168.373.376.373a.375.375 0 0 0 .376-.373.375.375 0 0 0-.376-.372M37.07 57.516a.374.374 0 0 0-.37.437c.252-.047.497-.097.736-.148a.375.375 0 0 0-.366-.29M37.07 55.562a.373.373 0 0 0 0 .745.374.374 0 0 0 .376-.373.375.375 0 0 0-.376-.372M37.07 53.608a.373.373 0 0 0 0 .745.374.374 0 0 0 .376-.372.375.375 0 0 0-.376-.373M37.07 52.4a.374.374 0 0 0 .338-.212c-.232-.05-.47-.098-.712-.145.009.199.173.357.374.357M36.093 56.491a.375.375 0 0 0-.376.373c0 .207.169.373.376.373a.373.373 0 1 0 0-.746M36.093 54.537a.375.375 0 0 0-.376.373c0 .207.169.373.376.373a.373.373 0 1 0 0-.746M36.093 52.584a.375.375 0 0 0-.376.372c0 .206.169.373.376.373a.374.374 0 0 0 .376-.373.374.374 0 0 0-.376-.372"/>
        <path fill="#000" d="M35.1 57.516a.375.375 0 0 0-.377.372c0 .164.107.302.254.352.116-.017.23-.033.343-.052a.367.367 0 0 0 .155-.3.374.374 0 0 0-.376-.372M35.1 55.562a.375.375 0 0 0-.377.372c0 .207.169.373.376.373a.373.373 0 1 0 0-.745M35.1 53.608a.375.375 0 0 0-.377.373c0 .206.169.372.376.372a.373.373 0 1 0 0-.745M34.122 56.491a.373.373 0 0 0 0 .745.373.373 0 1 0 0-.745M34.122 54.537a.373.373 0 0 0 0 .745.373.373 0 1 0 0-.745M33.129 57.516a.373.373 0 0 0 0 .745.373.373 0 1 0 0-.745M33.129 55.562a.373.373 0 0 0 0 .745.373.373 0 1 0 0-.745M33.129 54.354a.376.376 0 0 0 .36-.27c-.152.088-.306.172-.46.254.03.009.065.016.1.016M31.86 58.586c.181-.015.36-.03.539-.047a.373.373 0 0 0-.54.047M32.152 56.491a.373.373 0 0 0 0 .745.374.374 0 0 0 .376-.372.375.375 0 0 0-.376-.373M31.778 54.935a.375.375 0 1 0 .75-.024.374.374 0 0 0-.11-.264c-.21.1-.424.197-.64.288M31.158 57.516a.373.373 0 0 0 0 .745.374.374 0 0 0 .376-.373.375.375 0 0 0-.376-.372M31.158 55.562a.373.373 0 0 0 0 .745.374.374 0 0 0 .376-.373.375.375 0 0 0-.376-.372M30.181 58.445a.376.376 0 0 0-.36.271c.238-.01.474-.024.708-.038a.377.377 0 0 0-.348-.233M30.181 56.491a.375.375 0 0 0-.377.373c0 .207.169.373.377.373a.374.374 0 0 0 .376-.373.375.375 0 0 0-.376-.373M29.187 57.516a.373.373 0 0 0 0 .745.374.374 0 0 0 .376-.373.375.375 0 0 0-.376-.372M28.811 55.935c0 .206.169.372.376.372a.374.374 0 0 0 .376-.372.364.364 0 0 0-.09-.24c-.214.053-.43.1-.648.143a.382.382 0 0 0-.014.097M28.21 58.445a.375.375 0 0 0-.372.336c.25-.005.497-.01.742-.018a.374.374 0 0 0-.37-.318M28.21 56.491a.375.375 0 0 0-.376.373c0 .207.169.373.376.373a.373.373 0 1 0 0-.746M27.216 57.516a.375.375 0 0 0-.376.372c0 .207.17.373.376.373a.373.373 0 1 0 0-.745M27.216 56.308c.175 0 .32-.12.363-.278-.234.025-.468.045-.704.06.06.128.19.218.341.218M26.24 58.445a.374.374 0 0 0-.373.342c.247.002.496.004.746.004a.375.375 0 0 0-.373-.346M26.24 56.491a.373.373 0 0 0 0 .745.373.373 0 1 0 0-.745M25.246 57.516a.373.373 0 0 0 0 .745.373.373 0 1 0 0-.745M25.246 56.308a.374.374 0 0 0 .327-.193 16.24 16.24 0 0 1-.672-.031c.058.131.191.224.345.224M24.269 58.445a.375.375 0 0 0-.367.291c.245.01.49.02.737.025a.374.374 0 0 0-.37-.316M24.269 56.491a.373.373 0 0 0 0 .745.374.374 0 0 0 .376-.372.375.375 0 0 0-.376-.373M23.275 57.516a.373.373 0 0 0 0 .745.374.374 0 0 0 .376-.373.375.375 0 0 0-.376-.372M22.899 55.935c0 .206.169.372.376.372.205 0 .369-.16.376-.36a15.351 15.351 0 0 1-.731-.132.383.383 0 0 0-.021.12M22.298 58.445a.376.376 0 0 0-.323.184c.222.016.444.03.67.044a.376.376 0 0 0-.347-.228M22.298 56.491a.375.375 0 0 0-.376.373c0 .207.169.373.376.373a.373.373 0 1 0 0-.746M21.305 57.516a.375.375 0 0 0-.377.372c0 .207.168.373.377.373a.374.374 0 0 0 .375-.373.375.375 0 0 0-.375-.372M21.305 55.562a.375.375 0 0 0-.377.372c0 .207.168.373.377.373a.374.374 0 0 0 .375-.373.375.375 0 0 0-.375-.372M20.189 58.472c.114.013.229.025.345.035a.373.373 0 0 0-.345-.035M20.327 56.491a.375.375 0 0 0-.376.373c0 .207.169.373.376.373a.373.373 0 1 0 0-.746M19.333 57.516a.375.375 0 0 0-.375.372c0 .207.168.373.375.373a.373.373 0 1 0 0-.745M19.333 55.562a.375.375 0 0 0-.375.372c0 .207.168.373.375.373a.373.373 0 1 0 0-.745M18.357 56.491a.373.373 0 0 0 0 .745.373.373 0 1 0 0-.745M18.357 54.537a.373.373 0 0 0 0 .745.373.373 0 1 0 0-.745M17.363 57.516a.374.374 0 0 0-.346.519c.204.036.41.071.623.105a.369.369 0 0 0 .099-.252.374.374 0 0 0-.376-.372M17.363 55.562a.373.373 0 0 0 0 .745.373.373 0 1 0 0-.745M17.363 53.608a.373.373 0 0 0 0 .745.373.373 0 1 0 0-.745M16.386 56.491a.373.373 0 0 0 0 .745.374.374 0 0 0 .376-.372.375.375 0 0 0-.376-.373M16.386 54.537a.373.373 0 0 0 0 .745.374.374 0 0 0 .376-.372.375.375 0 0 0-.376-.373M16.01 52.957a.375.375 0 0 0 .746.06 19.833 19.833 0 0 1-.516-.404.373.373 0 0 0-.23.344M15.392 57.516a.38.38 0 0 0-.278.122c.207.05.42.1.638.148a.376.376 0 0 0-.36-.27M15.392 55.562a.373.373 0 0 0 0 .745.374.374 0 0 0 .376-.373.375.375 0 0 0-.376-.372M15.392 53.608a.373.373 0 0 0 0 .745.374.374 0 0 0 .376-.372.375.375 0 0 0-.376-.373M15.712 52.222c-.177.038-.35.078-.52.12a.376.376 0 0 0 .52-.12M14.415 56.491a.375.375 0 0 0-.376.373c0 .207.169.373.376.373a.373.373 0 1 0 0-.746M14.415 54.537a.375.375 0 0 0-.376.373c0 .207.169.373.376.373a.373.373 0 1 0 0-.746M14.415 52.584a.375.375 0 0 0-.376.372c0 .206.169.373.376.373a.374.374 0 0 0 .376-.373.374.374 0 0 0-.376-.372M13.421 55.562a.375.375 0 0 0-.376.372c0 .207.169.373.376.373a.373.373 0 1 0 0-.745M13.421 53.608a.375.375 0 0 0-.376.373c0 .206.169.372.376.372a.373.373 0 1 0 0-.745M12.15 56.634c.01-.011.019-.024.028-.033-.01.01-.019.022-.028.033M12.098 54.765"/>
        <path fill="#000" d="M12.444 56.491a.377.377 0 0 0-.266.11c-.01.01-.019.022-.028.033.204.1.426.199.664.294a.374.374 0 0 0-.37-.436M12.444 54.537a.377.377 0 0 0-.346.228.377.377 0 0 0 .08.41.381.381 0 0 0 .266.108.373.373 0 1 0 0-.746M12.799 53.077c-.18.072-.348.144-.507.22a.373.373 0 0 0 .507-.22M11.627 53.653a3.48 3.48 0 0 0-.544.406.375.375 0 0 0 .368.294.37.37 0 1 0 .176-.7M10.675 54.596a.98.98 0 0 0-.09.404c0 .085.013.17.036.253a.37.37 0 0 0 .054-.657"/>
        <path fill="#191919" d="M1.968 40.047a.653.653 0 0 1-.654-.649v-3.203c0-.357.293-.65.654-.65h3.229c.362 0 .655.293.655.65v3.203a.653.653 0 0 1-.655.649h-.958v-.634a1.744 1.744 0 0 0 1.105-1.616c0-.964-.79-1.747-1.761-1.747-.972 0-1.76.783-1.76 1.747 0 .733.456 1.36 1.103 1.616v.634h-.958zm10.367 4.448c-1.684 0-3.052 1.357-3.052 3.027v.938c0 1.378-1.131 2.5-2.522 2.5-1.39 0-2.522-1.122-2.522-2.5v-7.112h.958a1.961 1.961 0 0 0 1.968-1.95v-3.203a1.96 1.96 0 0 0-1.968-1.95h-3.23A1.962 1.962 0 0 0 0 36.194v3.203c0 1.075.883 1.95 1.968 1.95h.958v7.112c0 2.096 1.72 3.802 3.835 3.802 2.114 0 3.834-1.706 3.834-3.802v-.938c0-.952.781-1.725 1.74-1.725h1.128v-1.302h-1.128zM10.812 14.927c1.893 5.495 7.918 8.427 13.46 6.55 5.54-1.876 8.498-7.85 6.606-13.345-1.893-5.492-7.919-8.425-13.46-6.55-5.54 1.877-8.498 7.852-6.606 13.345"/>
        <path fill="#191919" d="M23.966 20.106l2.532.33a5.622 5.622 0 0 1 4.383 3.216l.76 1.654-2.777.052a5.621 5.621 0 0 1-5.353-3.571l-.47-1.214"/>
        <path fill="#191919" d="M22.697 20.436l-2.042 1.52a5.554 5.554 0 0 0-2.225 4.936l.156 1.809 2.445-1.305a5.56 5.56 0 0 0 2.895-5.717l-.19-1.286M11.879 35.923l.222 1.25.127 1.176.144 1.175.241 1.16.28 1.151.397 1.117.405 1.112.508 1.068.51 1.063.605 1.159.557.906.791.887.75.923.967.7.87.817.994.67 1.058.414 1.174.472 1.187.182 1.177.226 1.197-.074 1.182-.08 1.203.006 1.139-.302 1.167-.352 1.043-.592 1.03-.597.897-.784.903-.77.86-.824.746-1.05.66-.87.56-1.048.497-1.187.373-1.011.519-1.068.358-1.128.374-1.126.19-1.231.23-1.103.166-1.173.007-1.208-1.2-.011-1.161.218-1.173.076-1.179-.057-1.173.063-1.166.207-1.179-.067-1.17.169-1.178-.088-1.173.102-1.177-.156-1.175.11-1.175.118-1.176-.106-1.173-.098-1.176.031-1.174-.04-1.175-.03-1.17-.135-1.185.149-1.17-.144-1.176-.02-1.172-.093-1.24-.254zm14.12 19.298l-1.209-.073-1.24-.167-1.21-.308-1.188-.372-1.141-.495-1.123-.543-1.04-.688-1.006-.744-.891-.875-.76-1.001-.74-.981-.732-.983-.536-1.102-.566-1.095-.436-1.129-.352-1.166-.414-1.196-.262-1.138-.344-1.173-.135-1.212-.277-1.196-.132-1.215.119-1.227-.189-.98.974.276 1.243.02 1.235.12h1.241l1.236.115 1.235.137 1.244-.061 1.234.174 1.242-.003 1.243-.132 1.24.047 1.239.13 1.24.01 1.24.072 1.239-.19 1.243.13 1.241-.01 1.237-.12 1.243.048 1.234-.19 1.238-.069 1.245.046 1.238-.087 1.225-.25 1.244.005.892-.526-.055 1.29.02 1.056c.003.113-.01.225-.035.334l-.236 1.036-.051 1.222-.201 1.17-.24 1.235-.391 1.16-.312 1.183-.433 1.144-.441 1.049-.656 1.132-.579 1.187-.598.959-.759.963-.834.894-.977.787-.923.81-1.029.672-1.026.692-1.134.504-1.089.314-1.312.306-1.203.178-1.308.09z"/>
        <path fill="#191919" d="M20.838 1.722l-2.097.108-1.507.442-1.449.622-1.329.861-.924 1.287-1.041 1.155-.808 1.34-.435 1.502-.33 1.526-.022 1.566.218 1.417.421 1.028.345 1.55.405 1.49.128 1.524-.013 1.506-.06 1.58-.122 1.536-.38 1.493-.314 1.455-.377 1.451-.065 1.418.034 1.573.259 1.471.217 1.477.1.187 1.58-.123 1.54-.321 1.538-.343 1.53-.373 1.557-.219 1.551-.265 1.533-.352 1.54-.314 1.541-.32 1.53-.357 1.475-.584 1.566-.217 1.506-.456 1.512-.428 1.492-.496 1.513-.421 1.562-.264 1.472-.559.054-.17-.641-1.362-.314-1.458-.79-1.264-.715-1.29-.854-1.21-.886-1.195-.824-1.34-.902-1.276-.808-1.341-.59-1.452-.746-1.404-.132-1.59-.371-1.518-.118-1-.685-1.495-.887-1.357-.954-1.297-1.15-1.144-1.265-1.076-1.617-.41-1.563-.473-1.634-.031zm-10.433 34.41l-.128-.8-.21-.881-.25-1.595-.132-1.601-.114-1.893.051-1.327.338-1.58.281-1.591.394-1.595.19-1.632-.038-1.905-.032-1.267a2.103 2.103 0 0 0-.055-.426l-.3-1.295-.547-1.547-.16-1.185-.48-1.457.108-1.525.075-1.514.42-1.458.535-1.416.845-1.257.732-1.346 1.155-.989 1.131-1.013 1.34-.717 1.391-.603L18.428.41l1.19-.264L20.838 0l1.526.006 1.478.372 1.42.526 1.371.638 1.249.852 1.132 1.029 1.003 1.148.003.002a7.884 7.884 0 0 1 1.543 2.622l.532 1.436.243 1.137.387 1.629.443 1.61.512 1.397.744 1.716.822 1.475 1.027 1.287 1.064 1.274 1.084 1.215.785 1.42.678 1.47.47 1.386.372 1.709.151.907.215.674-.69.168-1.516.733-1.68.222-1.573.555-1.625.38-1.564.6-1.58.555-1.63.365-1.638.33-1.675.173-1.567.63-1.65.274-1.667.178-1.58.606-1.642.308-1.686.052-1.632.363-1.673.091-1.648.305-.77.307zM53.523 25.894l-1.983-.024.036 1.652 2 .081-.053-1.709zM51.552 34.3l-1.834-.064-1.846.088.125-2.252-.18-2.42.102-2.185.1-2.311-.18-2.277 2.292-.082 2.326.195 2.326.027 1.704.61.706 1.69-.004 2.8-.17.912-.39.655-.796.454 1.364 2.055 1.254 2.148-.845.022-1.91-.186-1.93.224-.733-1.903-.617-1.943-.967-.038.025 1.959.078 1.822zM61.426 34.761l-1.746-.959-.869-1.732.045-2.303-.058-2.303.23-2.323-.1-2.298 1.916.223 1.91-.216-.087 2.021.155 2.174.099 2.1-.11 2.048 1.933.05-.124-2.093.025-2.099.212-2.101-.005-2.008 1.805-.01 1.762.037.384 2.183-.063 2.304-.229 2.278.013 2.336-.762 1.99-1.685.334-2.334-.025zM70.03 27.13l.06-1.811.51-1.773 1.787-.812 2.101.019 2.106-.019 2.037.18.114 2.076-.049.986-2.49-.125-2.467.202-.04.703 3.05.318 1.589 1.136.564 1.72.091 1.752-.734 1.928-1.72.933-2.212-.28-2.216.002-2.135.054-.248-3.213 2.825.229 2.617-.202.005-.722-2.98-.515-1.468-1.178zM80.162 27.13l.087-1.811.517-1.737 1.75-.64 2.106.054 2.102-.22 2.198-.018-.194 2.232.075.93-2.467.144-2.492-.096.047.649 2.954.626 1.666.926.475 1.76.13 1.977-.66 1.772-1.787.648-2.212-.04-2.215-.127-2.11.144-.003-2.97 2.554.106 2.668-.162-.062-.834-2.957-.584-1.725-.906zM94.66 34.527l-2.096.09-1.773-.353-.189-2.192.088-2.304-.022-2.303.154-2.309-.276-2.395 2.018.223 1.738.005.09 2.163-.012 2.304-.15 2.303.318 2.305zM100.831 26.648l-.794 2.993 1.363-.074-.335-2.957-.234.038zm-1.183 5.955l-.466 1.64-1.801.266-1.81-.193.543-2.224.672-2.279.282-2.372.684-2.278.61-2.222 2.506-.26 2.674.034.394 2.424.868 2.26.543 2.204.338 2.474.625 2.325-1.955-.061-1.902.024-.25-1.94-2.555.178zM116.702 34.213l-1.801-.082-1.933.175-.839-2.568-1.022-2.553-.163.085-.12 1.641.153 1.753.128 1.739-1.934-.25-1.817.146.154-2.226-.078-2.305-.012-2.303-.182-2.31-.021-2.346 2.04-.066 2.034-.065 1 2.706.795 2.639.187-.07.086-1.74-.2-1.722.043-1.499 1.784-.242 1.89.114.008 2.15v4.575l-.209 2.469zM47.907 36.717l2.325-.025-.129 2.475.015 2.4 2.174-.184 2.197.206.1-2.422-.102-2.356 2.304-.198-.333 2.47.11 2.303.135 2.304-.239 2.308.244 2.398-2.201-.138.072-2.423.063-2.633-2.35-.081-2.228.185-.164 2.529.074 2.334-2.142.268.02-4.738.087-2.304zM62.803 39.042l-.833 2.452-.677 2.658 3.167-.243-.548-2.378-.747-2.478-.362-.011zm1.548-2.157l.577 2.084.738 2.114 1.05 2.012.478 2.204.71 2.12.11.953-2.282.045-.548-2.698-2.18.322-1.944-.057-.752 2.469-2.324-.06.013-.999.65-2.145.675-2.135.869-2.073.705-2.128.61-2.282 2.845.254zM71.208 39.66l.127 1.92-.237 1.922.252 1.922.239.716.798.4 2.408.075 2.38-.085.094 1.873-5.463.067-1.183-.19-.968-.52-.61-.893-.121-1.114.15-2.137-.157-4.285.293-1.047.43-.973 1.107-.178 1.06-.23 2.698.087 2.62-.045-.156 1.069-.116.497-2.348-.003-2.118.154-.728.353zM80.91 36.732l-.023 2.434-.141 2.483 2.18-.102 1.307-2.296 1.192-2.595h2.23l-1.762 3.355-1.152 2.455.97 1.587.902 1.668.811 1.707.066.855-2.249.156-1.218-2.55-1.098-2.513-2.081-.021.123 2.48-.206 2.39-2.155.165.046-2.388.092-2.303.075-2.305-.075-2.307-.134-2.388zM88.844 48.434l.173-2.432-.069-4.608-.176-2.308.206-2.32 2.007.01 1.992.109 1.994-.014 1.94-.006-.018 1.126.046.439-3.17.08-2.724-.013.315 2.912 1.91.075 1.954.258.21 1.677-2.164-.023-2.239-.112.13 3.204 1.928.203 1.937-.072 2.033-.223-.13 1.87-1.954-.087-1.991.191-1.993.042zM100.574 38.514l-.075 1.888.203 1.673 2.99.299.846-.466.488-.766-.221-1.482-.434-.594-.681-.412-3.116-.14zm6.35 2.958l-.312 1.18-.451.91-1.015.302 2.218 4.486-2.297.135-1.06-2.29-.99-2.286-2.254-.005-.14 2.275-.138 1.994-2.003.112-.14-2.283-.028-2.303.014-2.305.047-2.307-.002-2.378 2.023-.126 1.938.219 1.938.13 1.146-.007.999.41.423.96.175 1.036-.091 2.14zM116.881 45.836l-.202.973-.704.706-.873.511-1.114.531-1.853-.257-1.855.175-2.013-.011.275-1.813 2.331.048 2.45-.272 1.054-.185.267-.9.128-.578-.332-.723-2.144-.765-1.685-.448-1.583-.645-.755-1.781.195-1.153.081-1.014.752-.71.93-.451 1.1-.14 2.574-.397 2.516.362-.1.946.038.636-2.412-.09-1.952.2-1.011.297-.394.855-.012.412c.102.474.481.843.962.938l.151.03 1.307.548 1.586.344 1.5.83.775 1.671.022 1.32z"/>
        <path fill="#FFF" d="M20.752 18.71c-.248 0-.5.004-.742-.019-.246-.023-.503-.014-.743-.059-.243-.046-.459-.219-.694-.286-.236-.07-.44-.213-.669-.304-.228-.09-.493-.095-.71-.208-.22-.112-.485-.157-.691-.29-.206-.132-.348-.364-.54-.517a7.55 7.55 0 0 1-.548-.489c-.177-.168-.3-.384-.46-.57a7.68 7.68 0 0 1-.454-.569c-.14-.2-.264-.405-.385-.617-.12-.211-.24-.419-.34-.643-.1-.22-.143-.459-.22-.692-.079-.23-.187-.445-.243-.684-.002-.008.032-.016.03-.023-.062-.266-.25-.588-.153-.867.07-.206.264-.408.401-.644.113-.196.39-.295.56-.5.15-.175.192-.464.392-.639.174-.152.387-.286.605-.431.195-.128.453-.17.686-.29.208-.106.396-.284.638-.38.228-.092.486-.087.678-.183.222-.112.41-.263.588-.376.214-.135.316-.383.473-.512.209-.172.438-.26.562-.403.288-.331.423-.558.424-.563.172-.514.12-1.58.12-1.58s.555.895.908 1.293c0 0 .126.248.544.42.178.075.413.123.679.185.203.048.444-.015.702.012.213.02.438.055.69.055.2 0 .408.052.618.037.202-.015.402-.007.594-.007.249 0 .489-.055.71-.032.248.024.458.186.674.233.244.054.507-.006.714.07.235.088.435.231.625.339.22.125.383.3.548.437.203.168.332.36.461.517.197.24.347.422.412.554.07.14.202.27.227.429.035.234.09.451.105.685.012.237.008.502 0 .736a7.7 7.7 0 0 1-.055.715c-.032.234-.045.48-.098.71a7.92 7.92 0 0 1-.195.692c-.075.223-.205.436-.3.653-.095.214-.273.395-.388.602-.114.205-.34.338-.474.534-.134.199-.166.421-.317.605-.153.184-.3.416-.467.584-.169.17-.277.415-.46.567-.185.151-.516.115-.713.248-.198.137-.38.28-.589.396-.208.116-.436.177-.656.272-.218.096-.427.19-.655.266-.226.075-.405.32-.64.374-.287.067-.602-.013-.894.02-.293.033-.582.138-.875.138"/>
        <path fill="#191919" d="M22.035 16.502s.421-.078.767-.422c.377-.375.332-.935.332-.935-.372.215-.701.225-1.01.296-.31.071-.265.312-.265.312l-.01.003s-.068-.237-.378-.164c-.31.07-.626.286-1.103.254 0 0 .274.444.78.616.462.157.876.044.876.044l.01-.004zM25.857 10.78l.18.532-.577.211s.225.912-.81 1.348c-1.182.499-1.711-.345-1.711-.345l-.441.109-.17-.315s2.133-.74 3.53-1.54M15.968 13.049l.074.556.612-.061s.202.916 1.324.857c1.284-.067 1.385-1.055 1.385-1.055l.444-.094.013-.357s-2.243.264-3.852.154M40.055 27.865s1.09 3.197.919 7.263c0 0-16.988 1.286-27.432.07-.104-.012-.107-.16-.004-.178 3.337-.565 19.411-3.424 26.517-7.155"/>
        <path fill="#191919" d="M19.089 34.807c1.758.074 3.68.112 5.755.112 6.722 0 13.208-.396 15.34-.539a22.166 22.166 0 0 0-.643-5.364c-5.349 2.519-14.454 4.598-20.452 5.791m5.566 2.15c-4.55 0-9.765-.683-12.776-1.034-.449-.052.787-.344.775-.792-.011-.446-1.407-.77-.96-.844 3.155-.536 20.314-4.351 27.327-8.034l1.333-.605.467 1.96c.046.136 1.136 3.386.96 7.553l-.147 1.796-.642-.232c-.08.007-7.245.422-16.337.232"/>
        <path fill="#F4F4F4" d="M27.218 34.806l.443-.324.405-.358.069-.406-.192-.398-.542-.199-.546-.193-.474-.23-.551-.026-.541-.07-.55.052-.54.119-.487.227-.397.32-.456.314-.42.345-.048.44.197.414.58.142.511.244.474.236.549.072.555.05.55-.087.524-.152.45-.263z"/>
        <path fill="#191919" d="M24.623 34.146c-.055-.313-.415-.53-.804-.483-.387.048-.657.34-.601.654.056.315.416.53.804.483.387-.047.657-.34.601-.654"/>
        <path fill="#F4F4F4" d="M36.988 33.608l.389-.369.408-.354.242-.387-.377-.299-.524-.226-.524-.225-.482-.194-.523-.114-.543.001-.532.077-.53.103-.475.224-.379.32-.474.3-.445.324-.143.435.348.293.464.317.542.199.518.14.516.158.55-.057.548-.013.529-.133.504-.197z"/>
        <path fill="#191919" d="M34.386 32.942c-.056-.314-.415-.53-.804-.483-.388.047-.656.34-.602.654.057.315.417.53.804.482.39-.047.658-.34.602-.653"/>
    </g>
</svg>
