<svg xmlns="http://www.w3.org/2000/svg" xmlns:xlink="http://www.w3.org/1999/xlink" viewBox="0 0 198 32"><defs><style>.cls-1{isolation:isolate;}.cls-2,.cls-6{fill:#ea503d;}.cls-3{fill:url(#Безымянный_градиент_144);}.cls-4{opacity:0.67;mix-blend-mode:multiply;fill:url(#radial-gradient);}.cls-5{fill:url(#linear-gradient);}.cls-6{font-size:21.81px;font-family:Consolas-Bold, Consolas;font-weight:700;letter-spacing:0.1em;}</style><linearGradient id="Безымянный_градиент_144" x1="24.5" y1="23.93" x2="44.49" y2="8.08" gradientUnits="userSpaceOnUse"><stop offset="0" stop-color="#e05b95"/><stop offset="1" stop-color="#ff9347"/></linearGradient><radialGradient id="radial-gradient" cx="177.57" cy="5388.03" r="15.78" gradientTransform="translate(-118.86 -397.6) scale(0.85 0.08)" gradientUnits="userSpaceOnUse"><stop offset="0" stop-color="#b0bec5"/><stop offset="0.12" stop-color="#c4ced3"/><stop offset="0.33" stop-color="#dee4e7"/><stop offset="0.54" stop-color="#f0f3f4"/><stop offset="0.76" stop-color="#fbfcfc"/><stop offset="1" stop-color="#fff"/></radialGradient><linearGradient id="linear-gradient" x1="27.38" y1="14.95" x2="39.81" y2="14.95" gradientUnits="userSpaceOnUse"><stop offset="0" stop-color="#ff9347"/><stop offset="1" stop-color="#e05b95"/></linearGradient></defs><title>logo2Монтажная область 17</title><g class="cls-1"><g id="Слой_5" data-name="Слой 5"><path class="cls-2" d="M32,.54v3.9a8.88,8.88,0,0,0-8.86,8.86h-3.9A12.77,12.77,0,0,1,32,.54Z"/><path class="cls-3" d="M46.4,14.93a12.76,12.76,0,0,1-25.52,0h3.9a8.86,8.86,0,1,0,8.86-8.86V2.16A12.78,12.78,0,0,1,46.4,14.93Z"/><path class="cls-4" d="M46.3,30.21c0,.69-6,1.25-13.48,1.25s-13.48-.56-13.48-1.25S25.38,29,32.82,29,46.3,29.52,46.3,30.21Z"/><path class="cls-5" d="M39.81,9.39l-5.13,10a2,2,0,0,1-.82.82,2.49,2.49,0,0,1-1.54.27,2.24,2.24,0,0,1-1.66-1.15L27.38,12.9l.06,0h2.67l2.49,4.87,0,0h0a.11.11,0,0,0,.16,0l4.28-8.36Z"/><text class="cls-6" transform="translate(51.19 21.7)">VERIFATOR</text></g></g></svg>