<?xml version="1.0" encoding="UTF-8"?>
<svg width="198px" height="32px" viewBox="0 0 198 32" version="1.1" xmlns="http://www.w3.org/2000/svg" xmlns:xlink="http://www.w3.org/1999/xlink">
    <!-- Generator: sketchtool 57.1 (101010) - https://sketch.com -->
    <title>E70A5877-AE00-409E-AEDE-23DBCB3D8E28</title>
    <desc>Created with sketchtool.</desc>
    <g id="About" stroke="none" stroke-width="1" fill="none" fill-rule="evenodd">
        <g id="Product-Page" transform="translate(-120.000000, -28.000000)">
            <g id="Header-c-header-desktop">
                <g id="logos-/-c-logo-color" transform="translate(120.000000, 28.000000)">
                    <g>
                        <g id="logo" fill-rule="nonzero">
                            <path d="M100.83049,10.76 C101.57306,10.7496805 102.310403,10.8855962 103.00049,11.16 C103.637923,11.408425 104.199685,11.818546 104.63049,12.35 L104.63049,10.89 L107.00049,10.89 L107.00049,20.21 C107.00049,24.07 105.00049,26.0100133 101.07049,26.0100133 C100.057093,26.0115519 99.0480774,25.8770164 98.07049,25.61 C97.2177345,25.3866495 96.4208237,24.9881941 95.73049,24.44 L96.88049,22.51 C97.4181536,22.9558777 98.0358281,23.2952592 98.70049,23.51 C99.4199714,23.7477343 100.17275,23.869259 100.93049,23.87 C101.888558,23.9521912 102.840487,23.6540401 103.58049,23.04 C104.200996,22.3582085 104.509055,21.4485288 104.43049,20.53 L104.43049,19.96 C103.99043,20.4184147 103.45424,20.7735984 102.86049,21 C102.200306,21.2538784 101.497744,21.3794572 100.79049,21.37 C99.8203247,21.3831551 98.861934,21.1564391 98.00049,20.71 C97.1714962,20.2821796 96.4787217,19.6309715 96.00049,18.83 C95.5042746,17.9888717 95.2515406,17.0264054 95.27049,16.05 C95.2512894,15.0767224 95.5041068,14.1174017 96.00049,13.28 C96.4816199,12.4864045 97.1741249,11.8423748 98.00049,11.42 C98.8754921,10.9714332 99.8473271,10.7447861 100.83049,10.76 Z M139.53,8.46 L139.53,11 L142.53,11 L142.53,13 L139.53,13 L139.53,18.22 C139.498581,18.6647095 139.638073,19.1046442 139.92,19.45 C140.222377,19.7467038 140.637403,19.8996081 141.06,19.87 C141.57705,19.8869594 142.084608,19.7283473 142.5,19.42 L143.23,21.28 C142.900481,21.5356827 142.523043,21.7227018 142.12,21.83 C141.677563,21.9555803 141.219914,22.0195164 140.76,22.02 C139.738007,22.0842142 138.731913,21.7428609 137.96,21.07 C137.254018,20.3311598 136.891129,19.3295841 136.96,18.31 L136.96,13 L135.15,13 L135.15,11 L136.96,11 L136.96,8.46 L139.53,8.46 Z M150.840782,10.77 C151.885095,10.7568086 152.916209,11.0042761 153.840782,11.49 C154.709426,11.9499688 155.433048,12.6424306 155.930782,13.49 C156.438535,14.3710147 156.697742,15.3732836 156.680782,16.39 C156.696566,17.4097419 156.437499,18.4149232 155.930782,19.3 C155.435153,20.1492322 154.710994,20.8422076 153.840782,21.3 C152.916209,21.7857239 151.885095,22.0331914 150.840782,22.02 C149.796185,22.0357496 148.764448,21.7881327 147.840782,21.3 C146.97057,20.8422076 146.246411,20.1492322 145.750782,19.3 C145.244065,18.4149232 144.984998,17.4097419 145.000782,16.39 C144.983822,15.3732836 145.243029,14.3710147 145.750782,13.49 C146.248516,12.6424306 146.972138,11.9499688 147.840782,11.49 C148.764448,11.0018673 149.796185,10.7542504 150.840782,10.77 Z M70.67049,6.61 L70.67049,21.87 L68.20049,21.87 L68.20049,20.45 C67.7791086,20.963286 67.2406989,21.3679507 66.63049,21.63 C65.9730029,21.8953808 65.2694705,22.0279304 64.56049,22.02 C63.5663936,22.0330576 62.5854207,21.7921169 61.71049,21.32 C60.8669269,20.8574492 60.1730408,20.1635631 59.71049,19.32 C59.2188678,18.4196941 58.9739301,17.4054451 59.00049,16.38 C58.9781222,15.3525287 59.2301101,14.3376734 59.73049,13.44 C60.1948213,12.5977738 60.8882638,11.9043313 61.73049,11.44 C62.6054207,10.9678831 63.5863936,10.7269424 64.58049,10.74 C65.2658958,10.7312434 65.9460579,10.8604742 66.58049,11.12 C67.1812293,11.3557049 67.7138923,11.7371604 68.13049,12.23 L68.13049,6.61 L70.67049,6.61 Z M37.95049,10.77 C38.9406562,10.7489663 39.9203671,10.9758467 40.80049,11.43 C41.5990398,11.8531847 42.2431384,12.5182865 42.64049,13.33 L40.64049,14.48 C40.3553981,13.9993578 39.948313,13.6026223 39.46049,13.33 C38.1584826,12.6792168 36.589603,12.9022048 35.52049,13.89 C34.8762081,14.5583011 34.5361282,15.4627689 34.58049,16.39 C34.5358426,17.3154052 34.8718914,18.2187623 35.51049,18.89 C36.585221,19.9162759 38.1952453,20.1416793 39.51049,19.45 C40.0032548,19.1760375 40.4140375,18.7756106 40.70049,18.29 L42.70049,19.45 C42.2839963,20.2547626 41.6362098,20.9164799 40.84049,21.35 C39.9679889,21.8063723 38.994997,22.0367273 38.01049,22.02 C36.9232246,22.046889 35.8467244,21.7992596 34.88049,21.3 C34.0017363,20.8432401 33.2676217,20.1506791 32.76049,19.3 C32.2507417,18.415722 31.9882377,17.410608 32.00049,16.39 C31.9870656,15.3724112 32.2497111,14.3702114 32.76049,13.49 C33.2685654,12.6436218 33.9981467,11.9520756 34.87049,11.49 C35.8214841,10.9980829 36.8799772,10.7506429 37.95049,10.77 Z M180.660749,10.78 C181.662582,10.7656805 182.651145,11.010238 183.530749,11.49 C184.374312,11.9525508 185.068198,12.6464369 185.530749,13.49 C186.020374,14.4127146 186.264848,15.4457038 186.240749,16.49 C186.220749,16.62 186.210749,16.87 186.180749,17.2 L177.560749,17.2 C177.687168,17.9726637 178.11064,18.6652917 178.740749,19.13 C179.435835,19.6190373 180.271336,19.8682833 181.120749,19.84 C182.245001,19.8796529 183.333982,19.4440603 184.120749,18.64 L185.500749,20.23 C184.999483,20.8238657 184.356222,21.2813726 183.630749,21.56 C182.818779,21.8778029 181.952583,22.0340579 181.080749,22.02 C179.971271,22.0451112 178.872549,21.7978987 177.880749,21.3 C176.993217,20.8520001 176.25368,20.1575989 175.750749,19.3 C175.244032,18.4149232 174.984965,17.4097419 175.000749,16.39 C174.984391,15.3790801 175.236278,14.381887 175.730749,13.5 C176.199818,12.6613468 176.892096,11.969069 177.730749,11.5 C178.629168,11.0118216 179.638392,10.7638213 180.660749,10.78 Z M116.56049,19.07 C117.218274,19.7580856 117.218274,20.8419144 116.56049,21.53 C115.901666,22.1833333 114.839314,22.1833333 114.18049,21.53 L114.16049,21.53 C113.502706,20.8419144 113.502706,19.7580856 114.16049,19.07 C114.838349,18.4448199 115.882631,18.4448199 116.56049,19.07 Z M53.6409151,11.49 C54.5095586,11.9499688 55.2331812,12.6424306 55.7309151,13.49 C56.2386679,14.3710147 56.4978754,15.3732836 56.4809151,16.39 C56.4966992,17.4097419 56.2376318,18.4149232 55.7309151,19.3 C55.2352865,20.1492322 54.5111273,20.8422076 53.6409151,21.3 C51.7538049,22.2503252 49.5280253,22.2503252 47.6409151,21.3 C46.7737509,20.8415747 46.0529814,20.1485271 45.5609151,19.3 C45.0464926,18.4176457 44.7836449,17.4112156 44.8009151,16.39 C44.782392,15.3717948 45.0453905,14.3682479 45.5609151,13.49 C46.0546774,12.642805 46.7750155,11.9501722 47.6409151,11.49 C49.5280253,10.5396748 51.7538049,10.5396748 53.6409151,11.49 Z M193.43,10.71 C194.193953,10.7124609 194.955275,10.7996608 195.7,10.97 C196.349192,11.101012 196.973574,11.3338897 197.55,11.66 L196.55,13.61 C195.592514,13.0591797 194.50453,12.7759584 193.4,12.79 C192.807076,12.755127 192.215061,12.8721532 191.68,13.13 C191.328818,13.2925128 191.102917,13.6430497 191.1,14.03 C191.0916,14.4283213 191.348943,14.7836992 191.73,14.9 C192.35862,15.1256911 193.008666,15.2865272 193.67,15.38 C194.400895,15.4862803 195.122882,15.646722 195.83,15.86 C196.381621,16.0326488 196.880486,16.3422891 197.28,16.76 C197.710145,17.2615221 197.928836,17.9104237 197.89,18.57 C197.90452,19.5706483 197.396756,20.5066025 196.55,21.04 C195.459739,21.7135758 194.189743,22.038053 192.91,21.97 C192.030593,21.985215 191.153021,21.8843447 190.3,21.67 C189.589109,21.4848142 188.913453,21.1841472 188.3,20.78 L189.3,18.78 C189.848173,19.1351601 190.448868,19.4017603 191.08,19.57 C191.729519,19.7623088 192.402643,19.8632775 193.08,19.87 C194.62,19.87 195.39,19.46 195.39,18.65 C195.395801,18.2809372 195.154305,17.9534848 194.8,17.85 C194.187836,17.6493525 193.558521,17.5054133 192.92,17.42 C192.172775,17.3179076 191.434103,17.1608144 190.71,16.95 C190.141556,16.7744966 189.630509,16.4499123 189.23,16.01 C188.784927,15.4961957 188.558777,14.8285175 188.6,14.15 C188.575981,13.1488819 189.066651,12.2052866 189.9,11.65 C190.950362,10.9773779 192.184232,10.6488119 193.43,10.71 Z M128.60049,10.71 C129.361137,10.712541 130.119138,10.7997446 130.86049,10.97 C131.509682,11.101012 132.134064,11.3338897 132.71049,11.66 L131.71049,13.61 C130.756121,13.060457 129.671696,12.7772634 128.57049,12.79 C127.977414,12.7528717 127.384833,12.8700097 126.85049,13.13 C126.495405,13.2895831 126.265208,13.6407319 126.26049,14.03 C126.25209,14.4283213 126.509433,14.7836992 126.89049,14.9 C127.519867,15.12318 128.169658,15.283953 128.83049,15.38 C129.561385,15.4862803 130.283372,15.646722 130.99049,15.86 C131.544977,16.0327147 132.047069,16.3422233 132.45049,16.76 C132.877035,17.2630382 133.092086,17.9117768 133.05049,18.57 C133.068976,19.5716201 132.560222,20.5093973 131.71049,21.04 C130.620736,21.714767 129.35036,22.0393411 128.07049,21.97 C127.194423,21.9843358 126.320271,21.8834721 125.47049,21.67 C124.759599,21.4848142 124.083943,21.1841472 123.47049,20.78 L124.47049,18.78 C125.02064,19.1314961 125.620749,19.3978364 126.25049,19.57 C126.900204,19.7614283 127.573205,19.8623785 128.25049,19.87 C129.78049,19.87 130.55049,19.46 130.55049,18.65 C130.561035,18.2826328 130.322926,17.9542058 129.97049,17.85 C129.354855,17.6495691 128.722241,17.5056409 128.08049,17.42 C127.333456,17.3168189 126.594862,17.1597425 125.87049,16.95 C125.303063,16.7723 124.792554,16.4480579 124.39049,16.01 C123.945417,15.4961957 123.719267,14.8285175 123.76049,14.15 C123.74057,13.1473993 124.23478,12.2042505 125.07049,11.65 C126.120852,10.9773779 127.354722,10.6488119 128.60049,10.71 Z M77.45049,10.89 L77.45049,21.89 L74.86049,21.89 L74.87049,10.89 L77.45049,10.89 Z M91.20049,12 C92.0992301,12.974211 92.5520904,14.2784486 92.45049,15.6 L92.45049,21.89 L89.88049,21.89 L89.88049,15.89 C89.9473786,15.1054576 89.7031458,14.3260677 89.20049,13.72 C88.6919714,13.211533 87.9877846,12.9488312 87.27049,13 C86.438179,12.9599486 85.6267067,13.2678734 85.03049,13.85 C84.439313,14.5279272 84.1408622,15.4124923 84.20049,16.31 L84.20049,21.86 L81.63049,21.86 L81.63049,10.86 L84.08049,10.86 L84.08049,12.28 C84.5123887,11.767894 85.0659901,11.3724644 85.69049,11.13 C86.383024,10.8519769 87.1243648,10.7159511 87.87049,10.73 C89.1060498,10.6886652 90.3062429,11.1463965 91.20049,12 Z M171.581759,10.89 L171.581759,21.89 L169.011759,21.89 L169.011759,10.89 L171.581759,10.89 Z M165.76,10.76 L165.76,13.21 C165.562187,13.1721643 165.361388,13.1520844 165.16,13.15 C164.29254,13.0992268 163.443595,13.4148605 162.82,14.02 C162.221636,14.7180607 161.920145,15.6225328 161.98,16.54 L161.98,21.87 L159.4,21.87 L159.4,10.87 L161.85,10.87 L161.85,12.47 C162.75857,11.2478321 164.245815,10.5974003 165.76,10.76 Z M151.043336,12.9498381 L150.840782,12.95 C149.966258,12.9204515 149.119976,13.2618699 148.510782,13.89 C147.882353,14.562884 147.550828,15.4601634 147.590782,16.38 C147.550828,17.2998366 147.882353,18.197116 148.510782,18.87 C149.072167,19.4522284 149.836219,19.7909316 150.639295,19.819388 L150.840782,19.82 C151.722363,19.8451447 152.574341,19.5007283 153.190782,18.87 C153.825813,18.200579 154.161498,17.3018087 154.120782,16.38 C154.161498,15.4581913 153.825813,14.559421 153.190782,13.89 C152.620813,13.3102171 151.850807,12.9751535 151.043336,12.9498381 Z M64.87049,13 C64.2866818,12.9916264 63.7108776,13.1364394 63.20049,13.42 C62.7023581,13.6857029 62.2871399,14.0836203 62.00049,14.57 C61.7040783,15.1263875 61.555987,15.7497488 61.57049,16.38 C61.5546212,17.0103946 61.702794,17.6340987 62.00049,18.19 C62.2716442,18.6907731 62.676741,19.106257 63.17049,19.39 C63.67828,19.6810982 64.2552588,19.8296616 64.84049,19.82 C65.4327096,19.835361 66.0176286,19.6865355 66.53049,19.39 C67.0302629,19.1107816 67.4397099,18.6943948 67.71049,18.19 C68.2877465,17.0523717 68.2877465,15.7076283 67.71049,14.57 C67.4397099,14.0656052 67.0302629,13.6492184 66.53049,13.37 C66.0189879,13.1037491 65.4466467,12.976179 64.87049,13 Z M48.2809151,13.89 C47.6551402,14.563893 47.3271322,15.4614092 47.3709151,16.38 C47.3271322,17.2985908 47.6551402,18.196107 48.2809151,18.87 C49.5844546,20.135035 51.6573756,20.135035 52.9609151,18.87 L52.9909151,18.87 C53.6150371,18.1957019 53.9396841,17.2975118 53.8909151,16.38 C53.9316315,15.4581913 53.5959462,14.559421 52.9609151,13.89 C51.6531802,12.6353549 49.58865,12.6353549 48.2809151,13.89 Z M98.72049,13.81 C98.0978084,14.3854855 97.754956,15.2024954 97.78049,16.05 C97.7554029,16.906161 98.0974705,17.7322179 98.72049,18.32 C99.3788667,18.9221081 100.249139,19.2385708 101.14049,19.2 C102.03593,19.2457695 102.911992,18.9285124 103.57049,18.32 L103.53049,18.32 C104.160129,17.7368034 104.5035,16.9075975 104.47049,16.05 C104.501417,15.2015027 104.157658,14.3823322 103.53049,13.81 C102.87704,13.2216531 102.018996,12.9129006 101.14049,12.95 C100.252412,12.9092584 99.3837004,13.217974 98.72049,13.81 Z M178.580749,13.55 C178.018871,14.0548423 177.662836,14.7491113 177.580749,15.5 L183.810749,15.5 C183.728124,14.7521222 183.371968,14.06118 182.810749,13.56 C182.226062,13.062621 181.478086,12.7990485 180.710749,12.82 C179.934063,12.7857903 179.173172,13.0465652 178.580749,13.55 Z M77.34049,6.43 C77.6500484,6.69445628 77.8259455,7.0828959 77.82049,7.49 C77.8319169,7.91933549 77.6611787,8.33346657 77.35049,8.63 C77.0402176,8.94482953 76.612251,9.11529081 76.17049,9.1 C75.7354603,9.10492062 75.3156835,8.93988018 75.00049,8.64 C74.6991415,8.35140322 74.5287315,7.95225171 74.5287315,7.535 C74.5287315,7.11774829 74.6991415,6.71859678 75.00049,6.43 C75.6756302,5.85801883 76.6653498,5.85801883 77.34049,6.43 Z M170.351759,6 C170.780638,5.98826587 171.198257,6.13818065 171.521759,6.42 C171.829062,6.68281347 172.007724,7.06566075 172.011759,7.47 C172.027047,7.89804199 171.859834,8.31243805 171.551759,8.61 C171.240122,8.92276692 170.813092,9.09285481 170.371759,9.08 C169.929582,9.0960779 169.498736,8.9381009 169.171759,8.64 C168.87041,8.35140322 168.7,7.95225171 168.7,7.535 C168.7,7.11774829 168.87041,6.71859678 169.171759,6.43 C169.495253,6.14041126 169.917793,5.98643499 170.351759,6 Z" id="Combined-Shape" fill="#464547"></path>
                            <path d="M1.15,19.9 C1.04215784,19.9 0.938870955,19.856521 0.863562201,19.7793296 C0.788253447,19.7021381 0.747303941,19.5978085 0.74987482,19.49 L0.74987482,12.17 C0.749101689,12.0461527 0.804234448,11.9285361 0.9,11.85 L14.62,0.84 C14.6831828,0.783047615 14.764944,0.751054122 14.85,0.74999998 C14.9578422,0.74999998 15.061129,0.793478967 15.1364378,0.87067044 C15.2117466,0.947861913 15.2526961,1.05219154 15.2501252,1.16 L15.2501252,8.16 C15.2480222,8.45908326 15.112277,8.74157997 14.88,8.93 L1.38,19.81 C1.31681719,19.8669524 1.23505604,19.8989459 1.15,19.9 Z" id="Path" fill="#76CCBE"></path>
                            <path d="M14.5001202,1.89 L14.5001202,8.2 C14.5023948,8.27414106 14.4688841,8.34488579 14.41,8.39 L1.5,18.75 L1.5,12.33 L14.5001202,1.89 L14.5001202,1.89 Z M14.85,-5.15019137e-07 C14.5948697,0.000410324044 14.3476685,0.0886964561 14.15,0.25 L0.43,11.26 C0.158419203,11.4799155 0.000451742255,11.8105451 5.80868686e-13,12.16 L5.80868686e-13,19.49 C5.80868686e-13,20.1267653 0.513258362,20.6445106 1.15,20.6500003 C1.40698491,20.6500003 1.65546004,20.5579151 1.85,20.39 L15.35,9.56 C15.7608061,9.22799069 15.9996782,8.72819668 16,8.2 L16,1.2 C16.0136464,0.886433663 15.8985375,0.580913804 15.6813739,0.354308318 C15.4642103,0.127702832 15.163863,-0.00029680347 14.85,-5.15019137e-07 Z" id="Shape" fill="#464547"></path>
                            <path d="M14.85,31.2501284 C14.7616676,31.2504605 14.676249,31.2184285 14.61,31.16 L0.89,20.48 C0.802656154,20.4088625 0.751375928,20.3026392 0.75,20.19 L0.75,12.29 L14.89,23.29 C15.1182008,23.4631151 15.251576,23.7335704 15.2500138,24.02 L15.2500138,30.86 C15.2500138,30.9651906 15.2075756,31.0659347 15.1322591,31.1393683 C15.0569426,31.2128018 14.955156,31.2526972 14.85,31.2501284 Z" id="Path" fill="#FF736C"></path>
                            <path d="M1.5,13.83 L14.43,23.9 C14.470503,23.9359022 14.49558,23.9860563 14.5,24.04 L14.5,30.13 L1.5,20 L1.5,13.83 L1.5,13.83 Z M0.57,11.35 C0.255197693,11.35 0,11.6051977 0,11.92 L0,20.19 C0.00359909868,20.5330967 0.161539763,20.8563241 0.43,21.07 L14.15,31.75 C14.3476685,31.9113035 14.5948697,31.9995897 14.85,32.0000463 C15.4757634,32.0055852 15.9890462,31.5056925 16,30.88 L16,24 C15.9992851,23.4831189 15.759268,22.9956997 15.35,22.68 L0.93,11.48 C0.828571003,11.3964678 0.701396988,11.3505439 0.57,11.35 Z" id="Shape" fill="#464547"></path>
                        </g>
                        <rect id="placeholder" fill-opacity="0" fill="#FFFFFF" x="0" y="0" width="198" height="32"></rect>
                    </g>
                </g>
            </g>
        </g>
    </g>
</svg>